<svg width="310" height="196" viewBox="0 0 310 196" fill="none" xmlns="http://www.w3.org/2000/svg">
<path fill-rule="evenodd" clip-rule="evenodd" d="M364.2 48.3102C350.388 27.2542 336.548 14.0933 322.665 6.92054C308.77 -0.258079 294.869 -1.41926 280.987 1.45804C267.119 4.33256 253.277 11.2356 239.471 20.1705C225.664 29.106 211.862 40.0943 198.083 51.1601C197.425 51.6881 196.768 52.2163 196.11 52.7445L196.066 52.7799L196.066 52.7801C182.953 63.3151 169.86 73.8342 156.77 82.6695C143.008 91.9581 129.279 99.3642 115.576 102.966C101.883 106.565 88.2181 106.365 74.5551 100.445C60.8828 94.5208 47.1662 82.8479 33.418 63.4155L32.6016 63.9931C46.4177 83.5212 60.2655 95.3432 74.1575 101.363C88.0588 107.386 101.958 107.579 115.83 103.933C129.69 100.29 143.526 92.8144 157.329 83.4984C170.455 74.639 183.578 64.0957 196.681 53.5683C197.357 53.0254 198.033 52.4825 198.709 51.9398C212.494 40.8696 226.257 29.9134 240.014 21.01C253.772 12.1061 267.494 5.27596 281.19 2.43723C294.873 -0.398721 308.536 0.746764 322.206 7.80898C335.887 14.8771 349.61 27.8912 363.363 48.8586L364.2 48.3102ZM325.422 17.2431C339.606 26.2901 353.74 42.6367 367.846 68.6104L366.967 69.0876C352.903 43.1901 338.869 27.0061 324.884 18.0862C310.919 9.17866 296.972 7.4951 283.011 10.6593C269.027 13.8285 255.01 21.8658 240.948 32.4394C226.889 43.0111 212.825 56.0882 198.737 69.3035C198.047 69.9511 197.357 70.5991 196.666 71.2471C183.276 83.8145 169.865 96.4006 156.452 106.932C142.349 118.005 128.205 126.836 114.031 130.989C99.8382 135.147 85.6159 134.612 71.4009 126.959C57.2046 119.317 43.0621 104.601 28.9531 80.492L29.8162 79.9869C43.8762 104.012 57.9025 118.557 71.8749 126.079C85.8285 133.591 99.7748 134.123 113.75 130.029C127.744 125.929 141.769 117.188 155.834 106.145C169.212 95.6423 182.593 83.0842 195.993 70.5075C196.68 69.863 197.367 69.2185 198.053 68.5742C212.134 55.3644 226.238 42.2498 240.347 31.6402C254.454 21.0325 268.605 12.8988 282.79 9.68403C296.996 6.46426 311.218 8.18377 325.422 17.2431ZM371.481 88.9331C357.079 59.2289 342.648 40.4543 328.166 29.9622C313.661 19.4529 299.125 17.2702 284.599 20.7047C270.103 24.1323 255.646 33.1466 241.238 44.9663C226.826 56.7891 212.421 71.456 198.038 86.232C197.336 86.9527 196.635 87.6736 195.933 88.3945C182.245 102.462 168.576 116.51 154.911 128.224C140.542 140.542 126.218 150.243 111.929 154.674C97.6659 159.098 83.4311 158.276 69.1802 149.527C54.9039 140.763 40.5701 124.018 26.2035 96.506L25.3171 96.9689C39.7225 124.555 54.1609 141.48 68.657 150.38C83.1785 159.294 97.7163 160.13 112.226 155.63C126.709 151.137 141.158 141.331 155.562 128.984C169.263 117.239 182.96 103.161 196.638 89.1036L196.639 89.1032C197.344 88.3785 198.049 87.6538 198.754 86.9295C213.144 72.1472 227.511 57.5209 241.872 45.7394C256.237 33.9547 270.553 25.0534 284.829 21.6779C299.076 18.3093 313.313 20.4359 327.58 30.772C341.87 41.1254 356.212 59.7324 370.581 89.3694L371.481 88.9331ZM330.898 45.0847C345.678 56.595 360.408 77.0431 375.111 109.291L374.201 109.706C359.527 77.5202 344.88 57.2404 330.283 45.8737C315.713 34.527 301.18 32.0497 286.641 35.4992C272.068 38.9567 257.453 48.3783 242.785 60.9143C228.122 73.4463 213.453 89.0493 198.761 104.82L197.89 105.756L196.673 107.062L196.602 107.139C182.636 122.136 168.652 137.155 154.663 149.655C139.958 162.796 125.206 173.195 110.415 177.857C95.5953 182.528 80.7484 181.435 65.9241 171.624C51.1286 161.831 36.3913 143.38 21.6861 113.418L22.5838 112.978C37.2554 142.87 51.8949 161.139 66.476 170.79C81.0285 180.421 95.5583 181.491 110.115 176.903C124.701 172.305 139.326 162.021 153.997 148.91C167.95 136.441 181.906 121.454 195.881 106.445C196.597 105.676 197.313 104.907 198.03 104.138C212.715 88.3745 227.422 72.7292 242.136 60.1541C256.844 47.5831 271.606 38.0387 286.41 34.5262C301.248 31.0057 316.092 33.5545 330.898 45.0847ZM378.738 129.679C363.734 96.0732 348.704 74.7042 333.624 62.6007C318.519 50.4767 303.373 47.6599 288.229 51.1373C273.12 54.6065 258.056 64.3305 243.045 77.193C228.029 90.0596 213.02 106.11 198.033 122.283C197.301 123.072 196.57 123.862 195.839 124.651L195.839 124.651C181.577 140.049 167.334 155.426 153.095 168.192C138.121 181.615 123.196 192.109 108.31 196.706C93.4557 201.294 78.6254 200.016 63.7697 189.858C48.8848 179.68 33.9421 160.563 18.9683 129.396L18.0669 129.829C33.0728 161.063 48.1101 180.361 63.2053 190.683C78.3297 201.025 93.4797 202.333 108.605 197.661C123.7 193 138.755 182.39 153.762 168.936C168.037 156.139 182.309 140.73 196.561 125.343L197.621 124.199L198.766 122.963C213.76 106.782 228.731 90.7753 243.696 77.9523C258.665 65.1251 273.581 55.5268 288.453 52.1119C303.289 48.7051 318.124 51.4421 332.998 63.3806C347.898 75.3395 362.848 96.5415 377.825 130.086L378.738 129.679ZM336.341 82.5163C351.722 94.7872 367.055 116.323 382.361 150.098L381.45 150.511C366.172 116.798 350.92 95.4265 335.717 83.298C320.538 71.1887 305.398 68.2832 290.257 71.5244C275.082 74.7727 259.865 84.2044 244.595 96.8627C229.329 109.517 214.056 125.356 198.76 141.367L197.698 142.48L196.615 143.614L196.512 143.722C181.973 158.949 167.413 174.197 152.85 186.834C137.54 200.119 122.182 210.559 106.786 215.05C91.3593 219.549 75.9109 218.071 60.4875 207.562C45.0914 197.072 29.7517 177.606 14.4429 146.203L15.3418 145.764C30.6174 177.1 45.8621 196.387 61.0505 206.736C76.2115 217.066 91.3476 218.511 106.506 214.09C121.694 209.66 136.92 199.333 152.195 186.079C166.721 173.474 181.25 158.258 195.8 143.02L195.8 143.02L195.801 143.019L196.575 142.208L198.037 140.677C213.326 124.672 228.638 108.791 243.957 96.0928C259.27 83.3987 274.638 73.8453 290.048 70.5466C305.491 67.2407 320.935 70.2261 336.341 82.5163ZM385.982 170.556C370.372 137.8 354.735 116.85 339.051 104.836C323.346 92.8065 307.607 89.751 291.87 92.7571C276.161 95.7578 260.492 104.79 244.874 116.856C229.253 128.924 213.638 144.063 198.047 159.321C197.286 160.066 196.526 160.81 195.765 161.555C180.928 176.082 166.112 190.588 151.299 202.576C135.724 215.18 120.196 224.963 104.704 229.06C89.2372 233.15 73.7909 231.578 58.3236 221.434C42.8327 211.274 27.2881 192.493 11.7129 162.096L10.823 162.552C26.4353 193.022 42.0783 211.975 57.7752 222.27C73.4958 232.58 89.2375 234.184 104.959 230.027C120.655 225.876 136.315 215.988 151.928 203.353C166.779 191.335 181.626 176.798 196.453 162.282C197.217 161.533 197.982 160.784 198.747 160.036C214.344 144.771 229.918 129.674 245.486 117.647C261.057 105.618 276.577 96.6965 292.057 93.7394C307.509 90.7877 322.96 93.7705 338.443 105.63C353.948 117.506 369.501 138.296 385.079 170.987L385.982 170.556ZM341.749 129.553C357.735 140.883 373.676 160.494 389.591 191.045L388.704 191.507C372.827 161.029 356.976 141.571 341.17 130.369C325.382 119.179 309.618 116.211 293.851 118.749C278.061 121.29 262.237 129.357 246.367 140.298C230.498 151.238 214.624 165.021 198.724 178.96L197.608 179.939L196.534 180.881L196.387 181.01L196.386 181.01C181.273 194.266 166.138 207.541 150.999 218.482C135.082 229.987 119.121 238.941 103.129 242.582C87.1169 246.227 71.0862 244.541 55.0702 234.793C39.0723 225.056 23.1239 207.296 7.20563 178.864L8.07819 178.375C23.952 206.728 39.7958 224.325 55.5901 233.939C71.3662 243.541 87.1276 245.199 102.907 241.607C118.707 238.01 134.539 229.145 150.414 217.672C165.513 206.759 180.615 193.513 195.74 180.247L195.896 180.11L196.208 179.837L196.34 179.721L198.065 178.208C213.958 164.275 229.875 150.452 245.799 139.475C261.721 128.498 277.689 120.337 293.692 117.761C309.716 115.183 325.745 118.211 341.749 129.553ZM393.203 211.568C376.98 184.411 360.732 166.894 344.444 156.674C328.145 146.445 311.83 143.541 295.523 145.565C279.23 147.589 262.965 154.529 246.739 163.956C230.513 173.382 214.293 185.315 198.098 197.344L196.955 198.194L195.728 199.105L195.728 199.105C180.317 210.559 164.927 221.995 149.542 231.377C133.367 241.24 117.23 248.811 101.118 251.741C85.0205 254.668 68.9395 252.965 52.8512 244.261C36.7515 235.551 20.6095 219.812 4.43913 194.608L3.59746 195.148C19.8239 220.44 36.0786 236.324 52.3754 245.141C68.6835 253.963 84.9988 255.688 101.297 252.725C117.582 249.763 133.841 242.123 150.062 232.231C165.488 222.825 180.911 211.363 196.312 199.918L197.226 199.238L198.694 198.147C214.895 186.113 231.071 174.214 247.241 164.82C263.411 155.426 279.542 148.557 295.646 146.558C311.734 144.56 327.816 147.42 343.913 157.521C360.022 167.629 376.17 185.005 392.344 212.081L393.203 211.568ZM396.802 232.116C380.27 209.543 363.715 194.878 347.13 186.195C330.539 177.509 313.943 174.822 297.357 176.168C264.223 178.856 231.122 197.642 198.145 216.727L197.08 217.344L195.773 218.1L195.773 218.101C163.54 236.765 131.423 255.362 99.3305 259.454C82.9103 261.547 66.5052 259.84 50.0999 252.393C33.6901 244.943 17.25 231.736 0.786313 210.782L0 211.4C16.5362 232.446 33.0961 245.772 49.6865 253.303C66.2814 260.837 82.8767 262.56 99.457 260.446C131.753 256.328 164.024 237.641 196.18 219.021L196.248 218.981L197.136 218.467L198.646 217.593C231.671 198.479 264.571 179.831 297.438 177.164C313.852 175.833 330.257 178.489 346.666 187.08C363.081 195.675 379.527 210.221 395.995 232.707L396.802 232.116Z" fill="url(#paint0_linear_13632_1180)" fill-opacity="0.3"/>
<defs>
<linearGradient id="paint0_linear_13632_1180" x1="23.1015" y1="158.649" x2="375.847" y2="161.077" gradientUnits="userSpaceOnUse">
<stop stop-color="white" stop-opacity="0"/>
<stop offset="1" stop-color="white"/>
</linearGradient>
</defs>
</svg>
